<?xml version="1.0" encoding="UTF-8" standalone="no"?>
<!DOCTYPE svg PUBLIC "-//W3C//DTD SVG 1.1//EN" "http://www.w3.org/Graphics/SVG/1.1/DTD/svg11.dtd">
<svg width="456" height="456" viewBox="0 0 456 456" version="1.1" xmlns="http://www.w3.org/2000/svg" xmlns:xlink="http://www.w3.org/1999/xlink" xml:space="preserve" xmlns:serif="http://www.serif.com/" style="fill-rule:evenodd;clip-rule:evenodd;stroke-linejoin:round;stroke-miterlimit:2;">
    <path d="M0 0 C0.96134857 -0.0127597 1.92269714 -0.02551941 2.91317749 -0.03866577 C3.94552521 -0.04089142 4.97787292 -0.04311707 6.04150391 -0.04541016 C7.10922028 -0.05206696 8.17693665 -0.05872375 9.27700806 -0.06558228 C11.53475218 -0.07570318 13.79252618 -0.08039947 16.05029297 -0.08007812 C19.49838759 -0.08444772 22.94519851 -0.12076486 26.39306641 -0.15869141 C28.58837454 -0.16456041 30.78368874 -0.16852924 32.97900391 -0.17041016 C34.00730316 -0.18478119 35.03560242 -0.19915222 36.09506226 -0.21395874 C41.91555452 -0.1769465 45.65157098 0.18032563 50.14306641 4.29052734 C52.0099027 7.31302899 52.40171229 9.61999003 52.43359375 13.14746094 C52.44635345 14.10880951 52.45911316 15.07015808 52.47225952 16.06063843 C52.47448517 17.09298615 52.47671082 18.12533386 52.47900391 19.18896484 C52.48898911 20.7905394 52.48898911 20.7905394 52.49917603 22.42446899 C52.50929693 24.68221312 52.51399322 26.93998712 52.51367188 29.19775391 C52.51804147 32.64584853 52.55435861 36.09265944 52.59228516 39.54052734 C52.59815416 41.73583547 52.60212299 43.93114967 52.60400391 46.12646484 C52.61837494 47.1547641 52.63274597 48.18306335 52.64755249 49.24252319 C52.61054025 55.06301546 52.25326812 58.79903191 48.14306641 63.29052734 C45.12056476 65.15736364 42.81360372 65.54917323 39.28613281 65.58105469 C37.84410995 65.60019424 37.84410995 65.60019424 36.37295532 65.61972046 C34.82443375 65.62305893 34.82443375 65.62305893 33.24462891 65.62646484 C31.64305435 65.63645004 31.64305435 65.63645004 30.00912476 65.64663696 C27.75138063 65.65675786 25.49360663 65.66145416 23.23583984 65.66113281 C19.78774522 65.66550241 16.34093431 65.70181955 12.89306641 65.73974609 C10.69775828 65.7456151 8.50244408 65.74958393 6.30712891 65.75146484 C5.27882965 65.76583588 4.2505304 65.78020691 3.19107056 65.79501343 C-2.62942171 65.75800119 -6.36543816 65.40072906 -10.85693359 61.29052734 C-12.72376989 58.2680257 -13.11557948 55.96106466 -13.14746094 52.43359375 C-13.16022064 51.47224518 -13.17298035 50.51089661 -13.18612671 49.52041626 C-13.18835236 48.48806854 -13.190578 47.45572083 -13.19287109 46.39208984 C-13.19952789 45.32437347 -13.20618469 44.2566571 -13.21304321 43.15658569 C-13.22316411 40.89884157 -13.22786041 38.64106757 -13.22753906 36.38330078 C-13.23190866 32.93520616 -13.2682258 29.48839524 -13.30615234 26.04052734 C-13.31202135 23.84521921 -13.31599018 21.64990501 -13.31787109 19.45458984 C-13.33224213 18.42629059 -13.34661316 17.39799133 -13.36141968 16.33853149 C-13.32440744 10.51803923 -12.96713531 6.78202277 -8.85693359 2.29052734 C-5.83443195 0.42369105 -3.52747091 0.03188146 0 0 Z " fill="#6A768D" transform="translate(30.85693359375,17.70947265625)"/>
    <path d="M0 0 C2.1015625 1.16796875 2.1015625 1.16796875 4.1015625 4.16796875 C4.7615625 4.95171875 5.4215625 5.73546875 6.1015625 6.54296875 C9.57236929 11.09840266 10.58969264 15.01387979 10.50390625 20.67578125 C9.76034584 25.28152435 7.43265101 29.18014233 5.1015625 33.16796875 C4.1115625 33.16796875 3.1215625 33.16796875 2.1015625 33.16796875 C2.1015625 34.15796875 2.1015625 35.14796875 2.1015625 36.16796875 C-3.82752601 39.30772247 -9.14061057 41.52626951 -15.8984375 40.16796875 C-19.39067931 38.7544423 -22.64796458 37.06803643 -25.8984375 35.16796875 C-25.8984375 34.50796875 -25.8984375 33.84796875 -25.8984375 33.16796875 C-26.8884375 32.83796875 -27.8784375 32.50796875 -28.8984375 32.16796875 C-32.58240614 26.64817628 -33.88635085 20.69057738 -32.8984375 14.16796875 C-31.6730591 9.61908203 -29.87713365 6.77470071 -25.8984375 4.16796875 C-25.8984375 3.50796875 -25.8984375 2.84796875 -25.8984375 2.16796875 C-16.00799434 -3.50687569 -10.55984508 -4.26643896 0 0 Z " fill="#FBFBFB" transform="translate(61.8984375,31.83203125)"/>
    <path d="M0 0 C0.96134857 -0.0127597 1.92269714 -0.02551941 2.91317749 -0.03866577 C3.94552521 -0.04089142 4.97787292 -0.04311707 6.04150391 -0.04541016 C7.10922028 -0.05206696 8.17693665 -0.05872375 9.27700806 -0.06558228 C11.53475218 -0.07570318 13.79252618 -0.08039947 16.05029297 -0.08007812 C19.49838759 -0.08444772 22.94519851 -0.12076486 26.39306641 -0.15869141 C28.58837454 -0.16456041 30.78368874 -0.16852924 32.97900391 -0.17041016 C34.00730316 -0.18478119 35.03560242 -0.19915222 36.09506226 -0.21395874 C41.91555452 -0.1769465 45.65157098 0.18032563 50.14306641 4.29052734 C52.0099027 7.31302899 52.40171229 9.61999003 52.43359375 13.14746094 C52.44635345 14.10880951 52.45911316 15.07015808 52.47225952 16.06063843 C52.47448517 17.09298615 52.47671082 18.12533386 52.47900391 19.18896484 C52.48898911 20.7905394 52.48898911 20.7905394 52.49917603 22.42446899 C52.50929693 24.68221312 52.51399322 26.93998712 52.51367188 29.19775391 C52.51804147 32.64584853 52.55435861 36.09265944 52.59228516 39.54052734 C52.59815416 41.73583547 52.60212299 43.93114967 52.60400391 46.12646484 C52.61837494 47.1547641 52.63274597 48.18306335 52.64755249 49.24252319 C52.61054025 55.06301546 52.25326812 58.79903191 48.14306641 63.29052734 C45.12056476 65.15736364 42.81360372 65.54917323 39.28613281 65.58105469 C37.84410995 65.60019424 37.84410995 65.60019424 36.37295532 65.61972046 C34.82443375 65.62305893 34.82443375 65.62305893 33.24462891 65.62646484 C31.64305435 65.63645004 31.64305435 65.63645004 30.00912476 65.64663696 C27.75138063 65.65675786 25.49360663 65.66145416 23.23583984 65.66113281 C19.78774522 65.66550241 16.34093431 65.70181955 12.89306641 65.73974609 C10.69775828 65.7456151 8.50244408 65.74958393 6.30712891 65.75146484 C5.27882965 65.76583588 4.2505304 65.78020691 3.19107056 65.79501343 C-2.62942171 65.75800119 -6.36543816 65.40072906 -10.85693359 61.29052734 C-12.72376989 58.2680257 -13.11557948 55.96106466 -13.14746094 52.43359375 C-13.16022064 51.47224518 -13.17298035 50.51089661 -13.18612671 49.52041626 C-13.18835236 48.48806854 -13.190578 47.45572083 -13.19287109 46.39208984 C-13.19952789 45.32437347 -13.20618469 44.2566571 -13.21304321 43.15658569 C-13.22316411 40.89884157 -13.22786041 38.64106757 -13.22753906 36.38330078 C-13.23190866 32.93520616 -13.2682258 29.48839524 -13.30615234 26.04052734 C-13.31202135 23.84521921 -13.31599018 21.64990501 -13.31787109 19.45458984 C-13.33224213 18.42629059 -13.34661316 17.39799133 -13.36141968 16.33853149 C-13.32440744 10.51803923 -12.96713531 6.78202277 -8.85693359 2.29052734 C-5.83443195 0.42369105 -3.52747091 0.03188146 0 0 Z M-9.85693359 7.29052734 C-11.02460747 9.6258751 -11.00169296 11.04232513 -11.03393555 13.64501953 C-11.04677078 14.54645691 -11.05960602 15.44789429 -11.0728302 16.37664795 C-11.08021713 17.3536969 -11.08760406 18.33074585 -11.09521484 19.33740234 C-11.10328659 20.34136047 -11.11135834 21.3453186 -11.11967468 22.37969971 C-11.13352201 24.50816111 -11.14424125 26.63664478 -11.15209961 28.76513672 C-11.16929117 32.01361482 -11.21316951 35.26106972 -11.25732422 38.50927734 C-11.26745294 40.57697819 -11.27596848 42.64468769 -11.28271484 44.71240234 C-11.30022293 45.68135437 -11.31773102 46.6503064 -11.33576965 47.64862061 C-11.31746286 53.36827902 -10.78572944 56.81087446 -6.85693359 61.29052734 C-3.72205097 63.38044909 -2.96460105 63.54665453 0.61108398 63.58105469 C1.96312675 63.60019424 1.96312675 63.60019424 3.34248352 63.61972046 C4.80031502 63.62305893 4.80031502 63.62305893 6.28759766 63.62646484 C7.79141243 63.63645004 7.79141243 63.63645004 9.3256073 63.64663696 C11.44809127 63.65676638 13.57060711 63.66145389 15.69311523 63.66113281 C18.93282978 63.66549672 22.17117192 63.70178834 25.41064453 63.73974609 C27.47379092 63.7456161 29.53694377 63.74958426 31.60009766 63.75146484 C32.56591263 63.76583588 33.5317276 63.78020691 34.52680969 63.79501343 C40.20709916 63.75663882 43.73896936 63.25731033 48.14306641 59.29052734 C49.94803375 56.34866357 50.40063804 54.12209828 50.43359375 50.69311523 C50.44635345 49.78860123 50.45911316 48.88408722 50.47225952 47.9521637 C50.47448517 46.98230026 50.47671082 46.01243683 50.47900391 45.01318359 C50.48566071 44.00968369 50.4923175 43.00618378 50.49917603 41.97227478 C50.5092937 39.85157096 50.51399332 37.73083535 50.51367188 35.61010742 C50.51804583 32.36828128 50.55437763 29.12781586 50.59228516 25.88623047 C50.59815334 23.82438616 50.60212272 21.76253539 50.60400391 19.70068359 C50.61837494 18.73284439 50.63274597 17.76500519 50.64755249 16.76783752 C50.61877659 12.52310976 50.54844784 9.98005413 48.36425781 6.26489258 C44.88793395 3.17486938 42.20659618 2.04667492 37.56152344 1.98413086 C36.20959396 1.96014977 36.20959396 1.96014977 34.83035278 1.9356842 C33.38026321 1.92764015 33.38026321 1.92764015 31.90087891 1.91943359 C30.39918655 1.90589088 30.39918655 1.90589088 28.86715698 1.89207458 C26.75066109 1.87757691 24.63412044 1.86868655 22.51757812 1.86499023 C19.28650086 1.85309521 16.05733441 1.80390495 12.82666016 1.75341797 C10.76807571 1.74395324 8.70947955 1.73671844 6.65087891 1.73193359 C5.68820099 1.71240128 4.72552307 1.69286896 3.7336731 1.67274475 C-2.57832888 1.7150134 -5.52014807 2.62146325 -9.85693359 7.29052734 Z " fill="#20222C" transform="translate(30.85693359375,17.70947265625)"/>
    <path d="M0 0 C0.99 0 1.98 0 3 0 C4.41722796 7.7160189 3.65647386 15.24350887 3 23 C2.01 23 1.02 23 0 23 C0 18.38 0 13.76 0 9 C-0.98742188 9.3609375 -1.97484375 9.721875 -2.9921875 10.09375 C-4.28639791 10.56266681 -5.58067206 11.03140769 -6.875 11.5 C-7.52597656 11.73847656 -8.17695312 11.97695313 -8.84765625 12.22265625 C-13.7734375 14 -13.7734375 14 -16 14 C-16 13.34 -16 12.68 -16 12 C-12.04 10.35 -8.08 8.7 -4 7 C-6.22189824 4.77810176 -8.08482708 4.07401108 -11 3 C-11 2.34 -11 1.68 -11 1 C-7.44219804 1.60990891 -4.3171411 2.5783681 -1 4 C-0.67 2.68 -0.34 1.36 0 0 Z " fill="#35363F" transform="translate(49,44)"/>
    <path d="M0 0 C0.99 0 1.98 0 3 0 C4.41722796 7.7160189 3.65647386 15.24350887 3 23 C2.01 22.67 1.02 22.34 0 22 C0 14.74 0 7.48 0 0 Z " fill="#815951" transform="translate(49,44)"/>
</svg>
